<mxfile host="app.diagrams.net" agent="Mozilla/5.0 (Macintosh; Intel Mac OS X 10_15_7) AppleWebKit/537.36 (KHTML, like Gecko) Chrome/130.0.0.0 Safari/537.36" version="24.8.4">
  <diagram name="Page-1" id="wE83LsZzIeXdS4NZE4BO">
    <mxGraphModel dx="909" dy="553" grid="1" gridSize="10" guides="1" tooltips="1" connect="1" arrows="1" fold="1" page="1" pageScale="1" pageWidth="827" pageHeight="1169" math="0" shadow="0">
      <root>
        <mxCell id="0" />
        <mxCell id="1" parent="0" />
        <mxCell id="HeSdFxaNBYyBrIA2g6oS-11" value="&lt;font style=&quot;font-size: 24px;&quot;&gt;12Bit Digital Signal&lt;/font&gt;" style="text;html=1;align=center;verticalAlign=middle;resizable=0;points=[];autosize=1;strokeColor=none;fillColor=none;" parent="1" vertex="1">
          <mxGeometry x="620" y="480" width="220" height="40" as="geometry" />
        </mxCell>
        <mxCell id="SIO1ifh6o1rjMVHVPqWp-3" value="" style="shape=flexArrow;endArrow=classic;html=1;rounded=0;exitX=1;exitY=0.5;exitDx=0;exitDy=0;" parent="1" edge="1">
          <mxGeometry width="50" height="50" relative="1" as="geometry">
            <mxPoint x="605" y="530" as="sourcePoint" />
            <mxPoint x="850" y="530" as="targetPoint" />
          </mxGeometry>
        </mxCell>
        <mxCell id="SIO1ifh6o1rjMVHVPqWp-7" value="" style="swimlane;startSize=0;" parent="1" vertex="1">
          <mxGeometry x="200" y="160" width="420" height="480" as="geometry" />
        </mxCell>
        <mxCell id="SIO1ifh6o1rjMVHVPqWp-8" value="&lt;font style=&quot;font-size: 36px;&quot;&gt;ADC&lt;/font&gt;" style="text;html=1;align=center;verticalAlign=middle;resizable=0;points=[];autosize=1;strokeColor=none;fillColor=none;" parent="SIO1ifh6o1rjMVHVPqWp-7" vertex="1">
          <mxGeometry x="150" y="10" width="100" height="60" as="geometry" />
        </mxCell>
        <mxCell id="SIO1ifh6o1rjMVHVPqWp-1" value="&lt;font style=&quot;font-size: 24px;&quot;&gt;Analog&lt;/font&gt;" style="rounded=0;whiteSpace=wrap;html=1;" parent="SIO1ifh6o1rjMVHVPqWp-7" vertex="1">
          <mxGeometry x="80" y="80" width="240" height="120" as="geometry" />
        </mxCell>
        <mxCell id="CQFTEtlpDFxSxMwvSKzZ-5" value="" style="shape=flexArrow;endArrow=classic;html=1;rounded=0;entryX=0;entryY=0.5;entryDx=0;entryDy=0;exitX=1;exitY=0.5;exitDx=0;exitDy=0;" edge="1" parent="SIO1ifh6o1rjMVHVPqWp-7" source="CQFTEtlpDFxSxMwvSKzZ-1" target="CQFTEtlpDFxSxMwvSKzZ-2">
          <mxGeometry width="50" height="50" relative="1" as="geometry">
            <mxPoint x="135" y="425" as="sourcePoint" />
            <mxPoint x="185" y="375" as="targetPoint" />
          </mxGeometry>
        </mxCell>
        <mxCell id="CQFTEtlpDFxSxMwvSKzZ-1" value="&lt;font style=&quot;font-size: 24px;&quot;&gt;Pattern Generator&lt;/font&gt;" style="rounded=0;whiteSpace=wrap;html=1;" vertex="1" parent="SIO1ifh6o1rjMVHVPqWp-7">
          <mxGeometry x="35" y="355" width="150" height="70" as="geometry" />
        </mxCell>
        <mxCell id="CQFTEtlpDFxSxMwvSKzZ-2" value="&lt;font style=&quot;font-size: 24px;&quot;&gt;Logic&lt;/font&gt;" style="rounded=0;whiteSpace=wrap;html=1;" vertex="1" parent="SIO1ifh6o1rjMVHVPqWp-7">
          <mxGeometry x="225" y="355" width="160" height="70" as="geometry" />
        </mxCell>
        <mxCell id="CQFTEtlpDFxSxMwvSKzZ-3" value="" style="rounded=0;whiteSpace=wrap;html=1;fillColor=none;" vertex="1" parent="SIO1ifh6o1rjMVHVPqWp-7">
          <mxGeometry x="15" y="280" width="390" height="175" as="geometry" />
        </mxCell>
        <mxCell id="CQFTEtlpDFxSxMwvSKzZ-4" value="&lt;font style=&quot;font-size: 36px;&quot;&gt;Digital&lt;/font&gt;" style="text;html=1;align=center;verticalAlign=middle;resizable=0;points=[];autosize=1;strokeColor=none;fillColor=none;" vertex="1" parent="SIO1ifh6o1rjMVHVPqWp-7">
          <mxGeometry x="150" y="280" width="120" height="60" as="geometry" />
        </mxCell>
        <mxCell id="SIO1ifh6o1rjMVHVPqWp-6" value="" style="shape=flexArrow;endArrow=classic;html=1;rounded=0;exitX=0.5;exitY=1;exitDx=0;exitDy=0;entryX=0.417;entryY=0.021;entryDx=0;entryDy=0;entryPerimeter=0;" parent="SIO1ifh6o1rjMVHVPqWp-7" source="SIO1ifh6o1rjMVHVPqWp-1" target="CQFTEtlpDFxSxMwvSKzZ-4" edge="1">
          <mxGeometry width="50" height="50" relative="1" as="geometry">
            <mxPoint x="200" y="310" as="sourcePoint" />
            <mxPoint x="280" y="240" as="targetPoint" />
          </mxGeometry>
        </mxCell>
        <mxCell id="Y9W2T8TzP1hX9PGiEOE4-1" value="&lt;font style=&quot;font-size: 24px;&quot;&gt;pixel&lt;/font&gt;" style="rounded=0;whiteSpace=wrap;html=1;" parent="1" vertex="1">
          <mxGeometry x="60" y="240" width="100" height="100" as="geometry" />
        </mxCell>
        <mxCell id="Y9W2T8TzP1hX9PGiEOE4-3" value="" style="shape=flexArrow;endArrow=classic;html=1;rounded=0;exitX=1;exitY=0.5;exitDx=0;exitDy=0;entryX=0.012;entryY=0.412;entryDx=0;entryDy=0;entryPerimeter=0;" parent="1" source="Y9W2T8TzP1hX9PGiEOE4-1" target="SIO1ifh6o1rjMVHVPqWp-1" edge="1">
          <mxGeometry width="50" height="50" relative="1" as="geometry">
            <mxPoint x="500" y="440" as="sourcePoint" />
            <mxPoint x="550" y="390" as="targetPoint" />
          </mxGeometry>
        </mxCell>
      </root>
    </mxGraphModel>
  </diagram>
</mxfile>
